HIERARCHY
ROOT RootJoint
{
    OFFSET   0.000000   0.000000   0.000000
    CHANNELS 6 Xposition Yposition Zposition Xrotation Yrotation Zrotation
    JOINT pelvis_lowerback
    {
        OFFSET   0.000000   0.093605   0.000000
        CHANNELS 3 Xrotation Yrotation Zrotation
        JOINT lowerback_torso
        {
            OFFSET   0.000000   0.100000   0.000000
            CHANNELS 3 Xrotation Yrotation Zrotation
            JOINT torso_head
            {
                OFFSET   0.000000   0.282350   0.000000
                CHANNELS 3 Xrotation Yrotation Zrotation
                End Site
                {
                    OFFSET   0.000000   0.192650   0.000000
                }
            }
            JOINT rTorso_Clavicle
            {
                OFFSET  -0.001000   0.157500   0.000000
                CHANNELS 3 Xrotation Yrotation Zrotation
                JOINT rShoulder
                {
                    OFFSET  -0.117647   0.000000   0.000000
                    CHANNELS 3 Xrotation Yrotation Zrotation
                    JOINT rElbow
                    {
                        OFFSET  -0.245000   0.000000   0.000000
                        CHANNELS 3 Xrotation Yrotation Zrotation
                        JOINT rWrist
                        {
                            OFFSET  -0.240000   0.000000   0.000000
                            CHANNELS 3 Xrotation Yrotation Zrotation
                            End Site
                            {
                                OFFSET  -0.116353  -0.002500   0.000000
                            }
                        }
                    }
                }
            }
            JOINT lTorso_Clavicle
            {
                OFFSET   0.001000   0.157500   0.000000
                CHANNELS 3 Xrotation Yrotation Zrotation
                JOINT lShoulder
                {
                    OFFSET   0.117647   0.000000   0.000000
                    CHANNELS 3 Xrotation Yrotation Zrotation
                    JOINT lElbow
                    {
                        OFFSET   0.245000   0.000000   0.000000
                        CHANNELS 3 Xrotation Yrotation Zrotation
                        JOINT lWrist
                        {
                            OFFSET   0.240000   0.000000   0.000000
                            CHANNELS 3 Xrotation Yrotation Zrotation
                            End Site
                            {
                                OFFSET   0.116353  -0.002500   0.000000
                            }
                        }
                    }
                }
            }
        }
    }
    JOINT rHip
    {
        OFFSET  -0.100000  -0.051395   0.000000
        CHANNELS 3 Xrotation Yrotation Zrotation
        JOINT rKnee
        {
            OFFSET   0.000000  -0.410000   0.000000
            CHANNELS 3 Xrotation Yrotation Zrotation
            JOINT rAnkle
            {
                OFFSET   0.000000  -0.390000   0.000000
                CHANNELS 3 Xrotation Yrotation Zrotation
                JOINT rToeJoint
                {
                    OFFSET   0.000000  -0.050000   0.130000
                    CHANNELS 3 Xrotation Yrotation Zrotation
                    End Site
                    {
                        OFFSET  -0.010000   0.002000   0.060000
                    }
                }
            }
        }
    }
    JOINT lHip
    {
        OFFSET   0.100000  -0.051395   0.000000
        CHANNELS 3 Xrotation Yrotation Zrotation
        JOINT lKnee
        {
            OFFSET   0.000000  -0.410000   0.000000
            CHANNELS 3 Xrotation Yrotation Zrotation
            JOINT lAnkle
            {
                OFFSET   0.000000  -0.390000   0.000000
                CHANNELS 3 Xrotation Yrotation Zrotation
                JOINT lToeJoint
                {
                    OFFSET   0.000000  -0.050000   0.130000
                    CHANNELS 3 Xrotation Yrotation Zrotation
                    End Site
                    {
                        OFFSET   0.010000   0.002000   0.060000
                    }
                }
            }
        }
    }
}
MOTION
Frames: 11
Frame Time:   0.008333
 -2.225749   0.925417   4.563851   1.639544  16.728817  -2.916913  10.783646   1.422590   0.536901  -0.400518  -2.918263   1.685944  -6.143860   0.879784  -1.235616  -6.938170  28.938496   5.242950 -32.405728  19.062333  39.831764   0.001261  52.032655   0.001317  -5.255835   4.605149 -20.824914 -11.775778 -34.026540  -4.287465 -35.724383 -17.816155 -37.647409  -0.000515 -45.243490  -0.005009  -8.635899  -4.498595  28.953245  -7.708444  -3.782335  -1.222166   5.678124  -0.000018  -0.000022   7.324236  -4.370869   3.789612  -9.904996   0.000003   0.000252   3.102070   2.980550   4.357611  -0.029790   0.000024   0.000211  -3.862204   6.310082   1.891917  -1.253822  -0.000042  -0.000048
 -2.225646   0.925358   4.564431   1.712667  16.766998  -2.904125  10.635202   1.449531   0.507425  -0.410239  -2.905197   1.695246  -6.084552   0.811139  -1.261514  -6.851544  28.612100   5.381829 -32.222850  18.746751  40.073626   0.000942  52.149337   0.001518  -5.373198   4.756159 -20.843856 -11.636688 -33.596793  -4.383409 -35.539009 -17.502416 -38.047007  -0.000629 -45.737791  -0.005792  -8.722988  -4.641277  29.051961  -7.651760  -3.750415  -1.256838   5.530490  -0.000028  -0.000108   7.228626  -4.385336   3.790242  -9.728889   0.000002   0.000299   3.065492   2.904976   4.331499  -0.023832   0.000019   0.000167  -3.876760   6.317417   1.897728  -1.283788  -0.000031  -0.000031
 -2.225540   0.925299   4.565048   1.773777  16.807169  -2.886586  10.484596   1.481358   0.481949  -0.409092  -2.889010   1.703773  -6.038597   0.746809  -1.284663  -6.739568  28.258053   5.520517 -32.024555  18.414476  40.289858   0.000677  52.244672   0.001605  -5.503760   4.864240 -20.918918 -11.454504 -33.143604  -4.490146 -35.325821 -17.170586 -38.428184  -0.000723 -46.191571  -0.006294  -8.810825  -4.778887  29.163713  -7.584251  -3.719456  -1.293021   5.391596  -0.000035  -0.000173   7.124567  -4.399669   3.791189  -9.552009   0.000001   0.000337   3.043772   2.830352   4.305086  -0.019065   0.000015   0.000132  -3.890195   6.320062   1.900780  -1.318836  -0.000021  -0.000015
 -2.225460   0.925241   4.565629   1.825983  16.848130  -2.867511  10.346494   1.514866   0.459508  -0.394656  -2.870755   1.711447  -6.001220   0.687074  -1.304809  -6.618440  27.898541   5.650400 -31.823807  18.083813  40.482778   0.000477  52.324977   0.001600  -5.644975   4.926084 -21.023791 -11.256075 -32.688898  -4.597212 -35.102545 -16.835096 -38.781277  -0.000805 -46.603771  -0.006528  -8.919682  -4.865937  29.288577  -7.517360  -3.691438  -1.327525   5.265710  -0.000037  -0.000214   7.022280  -4.414182   3.791286  -9.383512  -0.000001   0.000358   3.028312   2.759679   4.280380  -0.015252   0.000011   0.000105  -3.902290   6.321295   1.903072  -1.351341  -0.000014  -0.000004
 -2.225417   0.925181   4.566148   1.872936  16.890727  -2.848232  10.224745   1.548678   0.438724  -0.368735  -2.851289   1.718032  -5.968220   0.631410  -1.322673  -6.496132  27.544926   5.770997 -31.627254  17.762980  40.656555   0.000334  52.394526   0.001534  -5.791182   4.956898 -21.144956 -11.054453 -32.244032  -4.701316 -34.878981 -16.505823 -39.107555  -0.000866 -46.980497  -0.006557  -9.045216  -4.910869  29.423376  -7.455285  -3.666689  -1.359855   5.150035  -0.000036  -0.000239   6.924582  -4.429328   3.790140  -9.222336  -0.000002   0.000368   3.013248   2.693068   4.257638  -0.012202   0.000009   0.000083  -3.913476   6.321923   1.905011  -1.377260  -0.000009   0.000002
 -2.225415   0.925119   4.566595   1.916789  16.935415  -2.829347  10.119753   1.582272   0.418767  -0.333520  -2.831130   1.723388  -5.937666   0.579477  -1.338828  -6.376484  27.203861   5.883228 -31.438164  17.456212  40.814905   0.000238  52.456034   0.001432  -5.938289   4.968408 -21.274163 -10.856377 -31.815859  -4.801442 -34.660532 -16.188577 -39.409794  -0.000899 -47.326844  -0.006436  -9.180314  -4.927474  29.563859  -7.399369  -3.645032  -1.389999   5.041926  -0.000033  -0.000253   6.831940  -4.445152   3.787601  -9.066276  -0.000003   0.000372   2.995698   2.630359   4.236809  -0.009761   0.000007   0.000066  -3.924446   6.322263   1.906693  -1.394452  -0.000005   0.000004
 -2.225453   0.925053   4.566969   1.958646  16.982254  -2.811128  10.030614   1.615403   0.399237  -0.290990  -2.810592   1.727546  -5.908703   0.531010  -1.353660  -6.261383  26.879200   5.988194 -31.258097  17.165643  40.960772   0.000177  52.511276   0.001310  -6.083784   4.968090 -21.405670 -10.665378 -31.408313  -4.897368 -34.450152 -15.886526 -39.690707  -0.000904 -47.646673  -0.006208  -9.319667  -4.926081  29.706205  -7.349816  -3.626176  -1.418035   4.939676  -0.000029  -0.000261   6.744182  -4.461555   3.783645  -8.913798  -0.000004   0.000371   2.974510   2.571356   4.217795  -0.007809   0.000005   0.000053  -3.935710   6.322471   1.908151  -1.402135  -0.000004   0.000004
 -2.225418   0.924960   4.567598   2.037047  17.040039  -2.802976   9.851234   1.643624   0.382919  -0.289230  -2.776078   1.735660  -5.831552   0.441946  -1.380214  -6.158068  26.454985   6.168357 -30.981545  16.740156  41.154064   0.000206  52.466227   0.000823  -6.160594   5.197579 -21.485688 -10.462714 -30.862199  -5.045966 -34.072307 -15.509209 -40.120387  -0.000830 -47.936611  -0.006132  -9.360486  -5.154914  29.814674  -7.310758  -3.599161  -1.447839   4.830956  -0.000028  -0.000291   6.615801  -4.487118   3.781793  -8.725557  -0.000007   0.000409   2.936280   2.466816   4.204995  -0.006247   0.000004   0.000042  -3.964134   6.313642   1.906540  -1.407676  -0.000002   0.000006
 -2.225374   0.924866   4.568265   2.099740  17.095832  -2.792112   9.673641   1.675912   0.369538  -0.270586  -2.738793   1.743225  -5.774907   0.358125  -1.403620  -6.015473  25.997184   6.346148 -30.683766  16.293256  41.323320   0.000265  52.401653   0.000335  -6.264676   5.346376 -21.618339 -10.204049 -30.286653  -5.203044 -33.663865 -15.104841 -40.527687  -0.000763 -48.186906  -0.005942  -9.431514  -5.321073  29.934749  -7.260554  -3.572800  -1.475683   4.736491  -0.000026  -0.000302   6.479998  -4.510781   3.779530  -8.541782  -0.000009   0.000435   2.916976   2.364590   4.194963  -0.004998   0.000003   0.000033  -3.995478   6.301279   1.902277  -1.414566  -0.000001   0.000008
 -2.225353   0.924773   4.568877   2.151587  17.151075  -2.779768   9.514729   1.709452   0.356795  -0.231839  -2.700822   1.749087  -5.729249   0.280133  -1.423903  -5.856819  25.531705   6.513380 -30.383665  15.848114  41.471792   0.000314  52.328797  -0.000074  -6.389351   5.425534 -21.783751  -9.924683 -29.708482  -5.359461 -33.250225 -14.694739 -40.905060  -0.000703 -48.404405  -0.005657  -9.540251  -5.408293  30.074117  -7.210409  -3.549004  -1.501476   4.654818  -0.000023  -0.000298   6.347955  -4.533810   3.776342  -8.367256  -0.000010   0.000445   2.904597   2.267805   4.186608  -0.003998   0.000002   0.000026  -4.026296   6.288268   1.897391  -1.417056  -0.000001   0.000008
 -2.225368   0.924677   4.569400   2.197641  17.207428  -2.767122   9.378953   1.743030   0.343340  -0.175863  -2.663107   1.752839  -5.688839   0.207399  -1.441977  -5.693738  25.073441   6.669535 -30.090463  15.415705  41.604150   0.000336  52.253010  -0.000381  -6.525214   5.459992 -21.967421  -9.641696 -29.142927  -5.511570 -32.844181 -14.292150 -41.254712  -0.000640 -48.596753  -0.005313  -9.674471  -5.439334  30.228356  -7.165413  -3.528122  -1.525539   4.581170  -0.000020  -0.000289   6.222903  -4.556830   3.772064  -8.199193  -0.000011   0.000447   2.891245   2.176483   4.179397  -0.003198   0.000002   0.000020  -4.056705   6.275404   1.892311  -1.410257  -0.000001   0.000003
